<svg width="16" height="16" viewBox="0 0 16 16" fill="none" xmlns="http://www.w3.org/2000/svg">
<circle cx="8" cy="8" r="8" fill="#F8BE66"/>
<path d="M6.69551 9.68L11.2155 5.16C11.3222 5.05333 11.4466 5 11.5888 5C11.7311 5 11.8555 5.05333 11.9622 5.16C12.0688 5.26667 12.1222 5.39342 12.1222 5.54027C12.1222 5.68711 12.0688 5.81369 11.9622 5.92L7.06885 10.8267C6.96218 10.9333 6.83774 10.9867 6.69551 10.9867C6.55329 10.9867 6.42885 10.9333 6.32218 10.8267L4.02885 8.53333C3.92218 8.42667 3.87098 8.30009 3.87525 8.1536C3.87951 8.00711 3.93516 7.88036 4.04218 7.77333C4.1492 7.66631 4.27596 7.61298 4.42245 7.61333C4.56894 7.61369 4.69551 7.66702 4.80218 7.77333L6.69551 9.68Z" fill="current"/>
</svg>
