<svg width="24" height="24" viewBox="0 0 24 24" fill="none" xmlns="http://www.w3.org/2000/svg">
<path d="M3 15.6671V19H6.33288L16.1627 9.17022L12.8298 5.83734L3 15.6671ZM18.7401 6.5928C18.8225 6.51057 18.8878 6.41291 18.9324 6.30539C18.977 6.19787 19 6.08261 19 5.96621C19 5.84981 18.977 5.73456 18.9324 5.62704C18.8878 5.51952 18.8225 5.42186 18.7401 5.33963L16.6604 3.25991C16.5781 3.17752 16.4805 3.11216 16.373 3.06756C16.2654 3.02296 16.1502 3 16.0338 3C15.9174 3 15.8021 3.02296 15.6946 3.06756C15.5871 3.11216 15.4894 3.17752 15.4072 3.25991L13.7808 4.88636L17.1136 8.21924L18.7401 6.5928Z" fill="current"/>
</svg>
