<svg width="30" height="30" viewBox="0 0 30 30" fill="none" xmlns="http://www.w3.org/2000/svg">
<g clip-path="url(#clip0_2060_2631)">
<path d="M23.4151 8.30248C23.7219 10.3492 24.0781 11.5207 22.6141 11.5207C20.6221 11.5207 20.6214 6.80623 17.2501 4.12048C13.9149 1.46398 11.4271 2.10973 11.3746 2.12398C11.3739 2.12473 11.3724 2.12623 11.3716 2.12698C14.1496 4.44598 12.6001 8.25748 10.7821 9.30823C9.03764 10.3162 7.04639 9.04498 8.08889 6.05323C5.79614 9.18823 3.81689 12.987 3.81689 16.7722C3.81689 22.9485 8.82389 27.9555 15.0001 27.9555C21.1764 27.9555 26.1834 22.9485 26.1834 16.7722C26.1834 13.854 25.0044 10.9275 23.4151 8.30248Z" fill="#EF4452"/>
<path d="M15.0002 15.0137C15.0002 15.0137 19.8632 17.8142 19.8632 21.7269C19.8632 24.4127 17.686 26.5899 15.0002 26.5899C12.3145 26.5899 10.1372 24.4127 10.1372 21.7269C10.1372 17.8142 15.0002 15.0137 15.0002 15.0137Z" fill="#FF7978"/>
</g>
<defs>
<clipPath id="clip0_2060_2631">
<rect width="30" height="30" fill="white"/>
</clipPath>
</defs>
</svg>
