<svg width="30" height="30" viewBox="0 0 30 30" fill="none" xmlns="http://www.w3.org/2000/svg">
<g clip-path="url(#clip0_2060_2611)">
<path d="M15.896 25.8367C16.2358 25.8367 16.5538 25.698 16.814 25.4797C17.8903 24.5775 19.2545 24.078 20.6698 24.078H26.6368C27.4235 24.078 28.0618 23.4397 28.0618 22.653V7.01172H1.93701V22.653C1.93701 23.4397 2.57526 24.078 3.36201 24.078H9.32901C10.7443 24.078 12.1085 24.5782 13.1848 25.4797C13.445 25.698 13.763 25.8367 14.1028 25.8367H15.896Z" fill="#007FF2"/>
<path d="M15 24.4121C16.1258 23.2864 17.6528 22.6534 19.245 22.6534H26.637C27.4237 22.6534 28.062 22.0151 28.062 21.2284V5.58711C28.062 4.80036 27.4237 4.16211 26.637 4.16211H19.245C17.6528 4.16211 16.1258 4.79436 15 5.92086" fill="#C0C7D1"/>
<path d="M14.9998 24.4121C13.874 23.2864 12.347 22.6534 10.7548 22.6534H3.36201C2.57526 22.6534 1.93701 22.0151 1.93701 21.2284V5.58711C1.93701 4.80036 2.57526 4.16211 3.36201 4.16211H10.754C12.3463 4.16211 13.8733 4.79436 14.999 5.92086" fill="#E5E8EB"/>
</g>
<defs>
<clipPath id="clip0_2060_2611">
<rect width="30" height="30" fill="white"/>
</clipPath>
</defs>
</svg>