<svg width="30" height="30" viewBox="0 0 30 30" fill="none" xmlns="http://www.w3.org/2000/svg">
<g clip-path="url(#clip0_2060_2620)">
<path d="M16.125 18.75H13.875V23.7502H16.125V18.75Z" fill="#FFAA00"/>
<path d="M22.2556 15.1836C21.3481 15.1836 20.4414 14.9338 19.5774 14.4343C17.3881 13.1683 15.8589 10.5013 15.8589 7.94905V7.08955L21.8424 5.45605H26.2524C27.2859 5.45605 28.1274 6.29755 28.1274 7.33105V8.68555C28.1274 11.0976 26.8989 13.3033 24.9219 14.4411C24.0624 14.9361 23.1594 15.1828 22.2564 15.1828L22.2556 15.1836ZM18.1906 8.78605C18.4726 10.2733 19.4596 11.7673 20.7039 12.4866C21.7306 13.0806 22.7724 13.0813 23.7991 12.4911C25.0809 11.7531 25.8774 10.2951 25.8774 8.68555V7.70605H22.1439L18.1906 8.7853V8.78605Z" fill="#FFCD00"/>
<path d="M7.74431 15.1836C6.84131 15.1836 5.93831 14.9361 5.07806 14.4411C3.10106 13.3033 1.87256 11.0976 1.87256 8.68555V7.33105C1.87256 6.29755 2.71406 5.45605 3.74756 5.45605H8.15756L14.1411 7.08955V7.94905C14.1411 10.5013 12.6118 13.1683 10.4226 14.4343C9.55931 14.9338 8.65181 15.1836 7.74431 15.1836ZM4.12256 7.7068V8.6863C4.12256 10.2958 4.91906 11.7538 6.20081 12.4918C7.22831 13.0828 8.26931 13.0813 9.29606 12.4873C10.5403 11.7681 11.5273 10.2741 11.8093 8.7868L7.85606 7.70755H4.12256V7.7068Z" fill="#FFCD00"/>
<path d="M24.0587 12.4412C24.0587 17.4925 19.9247 21.5778 14.8554 21.499C9.85367 21.421 5.94092 17.1175 5.94092 12.1158V4C5.94092 3.17125 6.61217 2.5 7.44092 2.5H22.5587C23.3874 2.5 24.0587 3.17125 24.0587 4V12.4412Z" fill="#FFCD00"/>
<path d="M20.501 27.8752H9.49854C8.88429 27.8752 8.45079 27.2737 8.64504 26.691L9.33954 24.6067C9.58479 23.8717 10.2725 23.376 11.0473 23.376H18.9523C19.727 23.376 20.4148 23.8717 20.66 24.6067L21.3545 26.691C21.5488 27.2737 21.1153 27.8752 20.501 27.8752Z" fill="#FFCD00"/>
</g>
<defs>
<clipPath id="clip0_2060_2620">
<rect width="30" height="30" fill="white"/>
</clipPath>
</defs>
</svg>
